<?xml version="1.0" encoding="iso-8859-1"?>
<!-- Generator: Adobe Illustrator 19.0.0, SVG Export Plug-In . SVG Version: 6.00 Build 0)  -->
<svg version="1.1" id="Layer_1" xmlns="http://www.w3.org/2000/svg" xmlns:xlink="http://www.w3.org/1999/xlink" x="0px" y="0px"
	 viewBox="0 0 491.52 491.52" style="enable-background:new 0 0 491.52 491.52;" xml:space="preserve">
<path style="fill:#64798A;" d="M491.52,104.128c0-8.152-6.331-14.761-14.142-14.761H14.142C6.333,89.367,0,95.976,0,104.128v275.946
	h491.52V104.128z"/>
<rect x="28.042" y="118.63" style="fill:#27A2DB;" width="435.456" height="232.141"/>
<path style="fill:#FFFFFF;" d="M444.013,292.193c-2.417,0-4.752,0.309-7.018,0.812c-1.767-15.772-14.991-28.077-31.234-28.077
	c-1.887,0-3.713,0.239-5.51,0.556c-0.43-13.934-11.792-25.117-25.832-25.117c-7.153,0-13.628,2.898-18.317,7.585
	c-3.928-10.803-14.191-18.562-26.35-18.562c-9.756,0-18.342,4.971-23.388,12.513c-6.643-7.288-16.119-11.941-26.757-11.941
	c-20.058,0-36.316,16.259-36.316,36.316c0-20.057-16.259-36.316-36.317-36.316c-10.637,0-20.114,4.653-26.757,11.941
	c-5.047-7.542-13.632-12.513-23.387-12.513c-12.159,0-22.423,7.759-26.35,18.562c-4.689-4.687-11.165-7.585-18.318-7.585
	c-14.039,0-25.402,11.183-25.832,25.117c-1.797-0.317-3.623-0.556-5.51-0.556c-16.243,0-29.466,12.305-31.234,28.077
	c-2.265-0.503-4.602-0.812-7.018-0.812c-5.252,0-10.14,1.371-14.525,3.594v55.016h434.682c0.266-0.19,0.494-0.425,0.754-0.623
	v-51.318C458.052,294.736,451.358,292.193,444.013,292.193z"/>
<rect x="28.042" y="342.871" style="fill:#E1E6E9;" width="435.456" height="9.405"/>
<path style="fill:#EBF0F3;" d="M0,380.075v36.526c0,8.153,6.333,14.761,14.142,14.761h463.235c7.812,0,14.142-6.608,14.142-14.761
	v-36.526H0z"/>
<ellipse style="fill:#64798A;" cx="245.76" cy="405.709" rx="19.2" ry="20.04"/>
<rect x="175.667" y="431.36" style="fill:#E1E6E9;" width="140.211" height="36.378"/>
<polygon style="fill:#D5D6DB;" points="315.865,467.739 175.655,431.362 315.865,431.362 "/>
<polygon style="fill:#EBF0F3;" points="315.865,467.739 175.655,467.739 157.669,491.52 333.851,491.52 "/>
<g>
	<path style="fill:#64798A;" d="M317.824,225.667l-37.448-79.064l-8.792,66.638l38.487,19.912
		C314.905,235.654,320.154,230.587,317.824,225.667z"/>
	<path style="fill:#64798A;" d="M173.696,225.667l37.448-79.064l8.792,66.638l-38.487,19.912
		C176.615,235.654,171.366,230.587,173.696,225.667z"/>
</g>
<path style="fill:#E56353;" d="M245.76,0c0,0-15.64,14.661-27.549,45.909h55.098C261.4,14.661,245.76,0,245.76,0z"/>
<path style="fill:#EBF0F3;" d="M218.211,45.909c-7.319,19.202-13.231,44.659-13.231,76.859c0,36.102,5.177,68.559,13.417,91.022
	h54.727c8.24-22.463,13.417-54.921,13.417-91.022c0-32.201-5.912-57.657-13.231-76.859H218.211z"/>
<path style="fill:#D15241;" d="M273.309,45.909C261.4,14.661,245.76,0,245.76,0s11.292,14.661,19.891,45.909H273.309z"/>
<path style="fill:#E1E6E9;" d="M273.309,45.909h-7.658c5.284,19.202,9.552,44.659,9.552,76.859c0,36.102-5.177,68.559-13.417,91.022
	h11.336c8.24-22.463,13.417-54.921,13.417-91.022C286.54,90.567,280.628,65.111,273.309,45.909z"/>
<circle style="fill:#D15241;" cx="245.76" cy="90.235" r="19.461"/>
<circle style="fill:#EBF0F3;" cx="245.76" cy="90.235" r="13.998"/>
<polygon style="fill:#64798A;" points="218.397,213.791 214.951,223.135 276.568,223.135 273.123,213.791 "/>
<path style="fill:#FCD462;" d="M226.45,223.135c-1.112,2.564-1.735,5.388-1.735,8.36c0,11.623,21.044,37.022,21.044,37.022
	s21.044-25.399,21.044-37.022c0-2.972-0.624-5.796-1.736-8.36H226.45z"/>
<path style="fill:#E56353;" d="M231.095,223.135c-0.845,1.947-1.317,4.092-1.317,6.35c0,8.828,15.982,28.118,15.982,28.118
	s15.982-19.291,15.982-28.118c0-2.257-0.474-4.402-1.317-6.35H231.095z"/>
<path style="fill:#FCD462;" d="M236.673,223.135c-0.523,1.206-0.816,2.535-0.816,3.935c0,5.469,9.903,17.421,9.903,17.421
	s9.903-11.952,9.903-17.421c0-1.399-0.293-2.728-0.816-3.935H236.673z"/>
<g>
</g>
<g>
</g>
<g>
</g>
<g>
</g>
<g>
</g>
<g>
</g>
<g>
</g>
<g>
</g>
<g>
</g>
<g>
</g>
<g>
</g>
<g>
</g>
<g>
</g>
<g>
</g>
<g>
</g>
</svg>
